<svg width="64" height="79" viewBox="0 0 64 79" fill="none" xmlns="http://www.w3.org/2000/svg">
<path d="M1.17507 77.6345C9.87591 77.6345 27.6175 77.6345 27.6175 77.6345C27.6175 77.6345 22.5988 70.2005 21.7832 69.0713C22.0969 68.789 22.7054 68.168 22.6301 67.9421C22.536 67.6598 16.89 67.7539 16.1371 67.5657C15.3843 67.3775 14.8197 67.0952 15.2902 66.907C15.7607 66.7188 22.4419 66.3424 23.5711 66.1542C24.7004 65.966 26.7706 65.966 27.6175 63.8958C28.4644 61.8256 29.2172 58.4379 29.2172 58.1556C29.2172 57.8733 26.6765 60.6022 24.2298 60.414C21.7832 60.2258 13.7846 57.497 12.0908 57.1206C10.397 56.7442 7.85625 56.2737 7.66805 56.556C7.47985 56.8383 9.92648 58.2497 14.4433 59.1907C18.9602 60.1317 25.265 60.6963 27.6175 58.4379C29.97 56.1795 30.2523 54.9562 30.2523 54.5797C30.2523 54.2033 31.1933 56.3677 31.0992 57.7792C31.0051 59.1907 31.5697 61.6375 29.2172 64.2723C26.8647 66.907 19.1484 68.4127 17.4546 68.4127C15.7607 68.4127 13.22 68.2244 12.4672 67.5657C11.7144 66.907 9.92647 65.7779 9.26777 65.3074C8.60906 64.8369 6.44473 63.99 5.50372 63.2372C4.56271 62.4844 3.3394 61.1668 3.24529 60.414C3.15119 59.6613 3.24529 55.9914 3.24529 55.3327C3.24529 54.674 1.64558 51.0981 1.55147 49.6866C1.45737 48.2751 2.21018 47.3341 2.30428 46.9577C2.39838 46.5813 2.49249 45.5461 2.02198 44.7933C1.55147 44.0405 0.610463 41.688 1.17507 40.3706C1.73968 39.0532 4.56271 36.9829 5.03322 36.3242C5.50372 35.6655 6.16243 34.6304 5.59782 32.8425C5.03322 31.0546 6.06833 28.7961 7.57395 28.0433C9.07956 27.2905 9.92647 26.4436 12.5613 26.0672C15.1961 25.6908 17.6428 25.5026 17.9251 25.7849C18.2074 26.0672 18.2074 26.6319 17.9251 26.726C17.6428 26.8201 21.2186 27.2904 22.4419 28.0433C23.6652 28.7962 24.2298 29.7372 25.8296 30.1136C27.4293 30.49 31.2874 31.337 31.5697 34.5364C31.852 37.7358 30.3464 39.6179 29.029 39.8061C27.7116 39.9943 22.0655 40.4648 17.1723 38.2063C12.279 35.9479 10.3029 35.8538 9.55007 35.7597C8.79726 35.6656 7.85625 35.7595 9.17367 36.3242C10.4911 36.8889 13.6905 38.7709 16.7018 39.5238C19.713 40.2766 23.3829 41.2176 26.206 40.9353C29.029 40.653 29.97 39.8061 30.3464 39.8061C30.7228 39.8061 34.1105 42.6291 31.5697 46.5813C29.029 50.5336 25.6414 50.6277 25.0768 50.5336C24.5121 50.4395 14.6315 48.2752 13.5964 47.9929C12.5613 47.7106 8.79726 46.9577 8.23265 47.0518C7.66805 47.1459 11.4321 48.5575 12.3731 48.9339C13.3141 49.3103 24.3239 52.0392 25.0768 52.1333C25.8296 52.2274 27.3352 52.0392 27.9939 51.2864C28.5209 50.6842 29.029 50.0945 29.2172 49.8749C29.5622 50.1886 30.2523 50.91 30.2523 51.2864C30.2523 51.6628 30.2523 52.8234 30.2523 53.3566C30.6915 53.388 31.5697 53.5072 31.5697 53.733C31.5697 54.0153 30.3464 54.5797 31.0992 54.5797C31.852 54.5797 33.0753 54.2976 32.9812 53.3566C32.8871 52.4156 32.3225 51.4746 31.5697 51.0041C30.8169 50.5336 30.1582 49.8749 30.2523 49.8749C30.3464 49.8749 32.4166 47.3341 33.1694 44.9816C33.9223 42.6291 34.1105 40.5589 33.1694 36.7948C32.2284 33.0308 31.0051 29.8313 30.6287 29.1726C30.2523 28.5139 29.2172 27.5729 27.7116 27.667C26.206 27.7611 24.6062 27.667 24.2298 27.1965C23.8534 26.726 21.7832 25.0322 21.2186 24.844C20.654 24.6558 19.5248 24.5618 19.8071 25.3145C20.0894 26.0672 21.3345 27.3848 22.1596 26.726C22.9847 26.0672 23.0065 24.6555 22.7242 23.9027C22.4419 23.1499 19.1484 19.48 18.2074 14.7749C17.2664 10.0699 17.0782 5.553 17.6428 3.85918C18.2074 2.16536 19.6189 0.753847 21.3127 1.03615C23.0065 1.31845 23.9475 1.60063 25.265 4.14136C26.5824 6.68209 28.6526 12.2343 29.3113 14.7749C29.97 17.3155 30.2523 20.0444 30.911 21.1737C31.5697 22.3029 33.5459 25.785 33.7341 26.726C33.9223 27.667 37.2158 35.5711 37.4981 38.3942C37.7804 41.2172 37.0276 45.9223 36.1807 47.7102C35.3338 49.4981 34.2987 50.7218 34.4869 51.0041C34.6751 51.2864 34.581 51.4746 35.2397 51.0041C35.8984 50.5336 35.8984 50.8163 36.1807 51.2864C36.463 51.7565 39.1919 57.1203 41.6385 59.4728C44.0852 61.8253 48.0581 65.7778 49.752 66.907C51.4458 68.0362 55.3959 70.6709 57.8239 70.6709C60.252 70.6709 62.252 70.6709 63.7523 70.6709" stroke="#404041"/>
<path d="M29.4993 20.7617C28.2446 21.3891 25.4717 22.6437 24.4178 22.6437C23.1004 22.6437 27.429 24.5258 29.4993 22.6437" stroke="#404041"/>
<path d="M26.6758 33.1836C27.1149 34.3128 27.7297 36.9853 26.6758 38.6415" stroke="#404041"/>
<path d="M25.3594 43.3438C25.8612 43.8456 26.8274 45.2634 26.6768 46.9196C26.5262 48.5758 25.7358 49.1153 25.3594 49.178" stroke="#404041"/>
<path d="M24.2295 52.7578C24.7314 53.2597 25.6975 54.6775 25.5469 56.3337C25.3963 57.9898 24.6059 58.5293 24.2295 58.5921" stroke="#404041"/>
<path d="M18.5752 61.0352C18.7827 61.7139 19.4857 62.9371 18.5752 64.3287C17.6647 65.7203 16.7136 65.7719 16.3518 65.6506" stroke="#404041"/>
</svg>
