<svg width="25" height="25" viewBox="0 0 25 25" fill="none" xmlns="http://www.w3.org/2000/svg">
<path d="M11.928 0.398888C12.2717 0.159223 12.7283 0.159222 13.072 0.398888L14.1968 1.18326C14.4323 1.34747 14.727 1.40256 15.0059 1.3345L16.338 1.00942C16.7451 0.910088 17.1709 1.07505 17.4048 1.42268L18.1703 2.56041C18.3305 2.7986 18.5854 2.95642 18.8701 2.99371L20.2298 3.17181C20.6452 3.22623 20.9827 3.53388 21.0752 3.94253L21.378 5.27995C21.4414 5.55995 21.622 5.79919 21.874 5.93679L23.0775 6.59403C23.4452 6.79485 23.6488 7.20363 23.5874 7.61811L23.3867 8.9746C23.3446 9.25859 23.4267 9.54695 23.6119 9.76627L24.4967 10.8139C24.7671 11.134 24.8092 11.5887 24.6023 11.953L23.925 13.1454C23.7832 13.395 23.7556 13.6935 23.8491 13.965L24.2957 15.2615C24.4322 15.6576 24.3072 16.0968 23.9826 16.3618L22.9204 17.229C22.698 17.4105 22.5644 17.6789 22.5535 17.9658L22.5016 19.3361C22.4857 19.7548 22.2106 20.1192 21.8122 20.249L20.5084 20.6739C20.2355 20.7629 20.0139 20.9649 19.9001 21.2284L19.3567 22.4875C19.1907 22.8721 18.8025 23.1125 18.3841 23.0897L17.0149 23.0149C16.7282 22.9993 16.4486 23.1076 16.2473 23.3123L15.2858 24.29C14.992 24.5887 14.5432 24.6726 14.1613 24.5002L12.9115 23.9358C12.6499 23.8177 12.3501 23.8177 12.0885 23.9358L10.8387 24.5002C10.4568 24.6726 10.008 24.5887 9.71416 24.29L8.75265 23.3123C8.55136 23.1076 8.2718 22.9993 7.98515 23.0149L6.61591 23.0897C6.19754 23.1125 5.80929 22.8721 5.64326 22.4875L5.09986 21.2284C4.9861 20.9649 4.76455 20.7629 4.49159 20.6739L3.18781 20.249C2.78944 20.1192 2.51425 19.7548 2.49839 19.3361L2.4465 17.9658C2.43564 17.6789 2.302 17.4105 2.07962 17.229L1.01738 16.3618C0.692808 16.0968 0.56784 15.6576 0.704304 15.2615L1.15092 13.965C1.24442 13.6935 1.21676 13.395 1.07498 13.1454L0.397731 11.953C0.190799 11.5887 0.232933 11.134 0.503287 10.8139L1.3881 9.76627C1.57333 9.54695 1.65538 9.25859 1.61335 8.9746L1.41256 7.61811C1.35122 7.20363 1.55476 6.79485 1.92249 6.59403L3.126 5.93679C3.37795 5.79919 3.55863 5.55995 3.62202 5.27995L3.92482 3.94253C4.01734 3.53388 4.35481 3.22623 4.77025 3.17181L6.12991 2.99371C6.41456 2.95642 6.66945 2.7986 6.82971 2.56041L7.5952 1.42268C7.82909 1.07505 8.2549 0.910087 8.66195 1.00942L9.99413 1.3345C10.273 1.40256 10.5677 1.34747 10.8032 1.18326L11.928 0.398888Z" fill="#00B612"/>
<path d="M7.5 13.5L10.5 16.5L18.5 9.5" stroke="white" stroke-width="2" stroke-linecap="round" stroke-linejoin="round"/>
</svg>
